SplineFontDB: 3.0
FontName: DejaVuSansMtavruli-Bold
FullName: DejaVu Sans Mtavruli Bold
FamilyName: DejaVu Sans
Weight: Bold
Copyright: Copyright (c) 2003 by Bitstream, Inc. All Rights Reserved.\nCopyright (c) 2006 by Tavmjong Bah. All Rights Reserved.\nDejaVu changes are in public domain\n
Version: 2.37
ItalicAngle: 0
UnderlinePosition: -85
UnderlineWidth: 90
Ascent: 1556
Descent: 492
LayerCount: 2
Layer: 0 1 "Back"  1
Layer: 1 1 "Fore"  0
FSType: 0
OS2Version: 0
OS2_WeightWidthSlopeOnly: 0
OS2_UseTypoMetrics: 0
PfmFamily: 17
TTFWeight: 700
TTFWidth: 5
LineGap: 0
VLineGap: 0
Panose: 2 11 8 3 3 6 4 2 2 4
OS2TypoAscent: 1556
OS2TypoAOffset: 0
OS2TypoDescent: -492
OS2TypoDOffset: 0
OS2TypoLinegap: 410
OS2WinAscent: 1901
OS2WinAOffset: 0
OS2WinDescent: 483
OS2WinDOffset: 0
HheadAscent: 1901
HheadAOffset: 0
HheadDescent: -483
HheadDOffset: 0
OS2Vendor: 'PfEd'
Lookup: 6 9 0 "Required Feature in N'Ko"  {"Required Feature in N'Ko"  } [' RQD' ('DFLT' <'dflt' > 'nko ' <'dflt' > ) ]
Lookup: 1 9 0 "'fina' Terminal forms in N'Ko"  {"'fina' Terminal forms in N'Ko"  } ['fina' ('nko ' <'dflt' > ) ]
Lookup: 1 0 0 "'medi' Medial forms in N'Ko"  {"'medi' Medial forms in N'Ko"  } ['medi' ('nko ' <'dflt' > ) ]
Lookup: 1 0 0 "'init' Initial forms in N'Ko"  {"'init' Initial forms in N'Ko"  } ['init' ('nko ' <'dflt' > ) ]
Lookup: 6 1 0 "'ccmp' in RTL"  {"'ccmp' in RTL"  } ['ccmp' ('arab' <'KUR ' 'SND ' 'URD ' 'dflt' > 'hebr' <'dflt' > 'nko ' <'dflt' > ) ]
Lookup: 6 0 0 "'ccmp' in Basic"  {"'ccmp' in Basic"  } ['ccmp' ('cyrl' <'MKD ' 'SRB ' 'dflt' > 'grek' <'dflt' > 'latn' <'ISM ' 'KSM ' 'LSM ' 'MOL ' 'NSM ' 'ROM ' 'SKS ' 'SSM ' 'dflt' > ) ]

StartChar: uni1C90
Encoding: 7312 7312 7312
Width: 1254
Flags: W
LayerCount: 2
Fore
SplineSet
1154 527 m 2,0,1
 1154 -29 1154 -29 636 -29 c 0,2,3
 100 -29 100 -29 100 532 c 2,4,-1
 100 664 l 1,5,-1
 164 956 l 1,6,-1
 503 956 l 1,7,-1
 427 631 l 1,8,-1
 427 457 l 2,9,10
 427 212 427 212 636 212 c 0,11,12
 836 212 836 212 836 467 c 2,13,-1
 836 709 l 2,14,15
 836 929 836 929 604 1144 c 128,-1,16
 372 1359 372 1359 372 1678 c 1,17,-1
 691 1678 l 1,18,19
 692 1439 692 1439 922.5 1195 c 128,-1,20
 1153 951 1153 951 1154 676 c 1,21,-1
 1154 527 l 2,0,1
EndSplineSet
EndChar
StartChar: uni1C91
Encoding: 7313 7313 7313
Width: 1254
Flags: W
LayerCount: 2
Fore
SplineSet
836 672 m 2,0,1
 836 971 836 971 628 971 c 1,2,3
 429 965 429 965 427 653 c 1,4,-1
 427 574 l 2,5,6
 427 211 427 211 627 211 c 0,7,8
 836 211 836 211 836 569 c 2,9,-1
 836 672 l 2,0,1
1154 588 m 2,10,11
 1154 -30 1154 -30 627 -30 c 0,12,13
 100 -30 100 -30 100 588 c 2,14,-1
 100 644 l 2,15,16
 100 1114 100 1114 505 1199 c 1,17,18
 509 1315 509 1315 454 1348 c 0,19,20
 293 1446 293 1446 292 1686 c 1,21,-1
 635 1686 l 1,22,23
 635 1545 635 1545 706 1494 c 0,24,25
 814 1416 814 1416 814 1261 c 1,26,-1
 809 1189 l 1,27,28
 1152 1093 1152 1093 1154 639 c 1,29,-1
 1154 588 l 2,10,11
EndSplineSet
EndChar
StartChar: uni1C92
Encoding: 7314 7314 7314
Width: 1337
Flags: W
LayerCount: 2
Fore
SplineSet
911 643 m 2,0,1
 911 989 911 989 678 989 c 0,2,3
 427 989 427 989 427 649 c 2,4,-1
 427 560 l 2,5,6
 427 212 427 212 674 212 c 0,7,8
 911 212 911 212 911 560 c 2,9,-1
 911 643 l 2,0,1
1237 569 m 2,10,11
 1237 -29 1237 -29 670 -29 c 0,12,13
 100 -29 100 -29 100 555 c 2,14,-1
 100 667 l 2,15,16
 100 1143 100 1143 655 1226 c 1,17,-1
 704 1226 l 1,18,19
 754 1287 754 1287 753 1355 c 1,20,21
 754 1454 754 1454 641 1454 c 0,22,23
 536 1454 536 1454 536 1320 c 1,24,-1
 243 1320 l 1,25,26
 243 1696 243 1696 638 1696 c 0,27,28
 1038 1696 1038 1696 1037 1350 c 1,29,30
 1030 1241 1030 1241 977 1157 c 1,31,32
 1105 1088 1105 1088 1171 961 c 128,-1,33
 1237 834 1237 834 1237 651 c 2,34,-1
 1237 569 l 2,10,11
EndSplineSet
EndChar
StartChar: uni1C93
Encoding: 7315 7315 7315
Width: 1847
Flags: W
LayerCount: 2
Fore
SplineSet
1419 1119 m 2,0,1
 1419 1445 1419 1445 1230 1445 c 0,2,3
 1049 1445 1049 1445 1048 1161 c 1,4,-1
 1048 1017 l 1,5,6
 1046 670 1046 670 1230 670 c 0,7,8
 1419 670 1419 670 1419 989 c 2,9,-1
 1419 1119 l 2,0,1
240 253 m 1,10,11
 324 316 324 316 413 349 c 1,12,13
 271 510 271 510 185.5 694.5 c 128,-1,14
 100 879 100 879 100 1077 c 2,15,-1
 100 1179 l 2,16,17
 100 1696 100 1696 587 1696 c 0,18,19
 746 1696 746 1696 886 1578 c 1,20,21
 943 1636 943 1636 1027.5 1661.5 c 128,-1,22
 1112 1687 1112 1687 1230 1687 c 0,23,24
 1747 1687 1747 1687 1747 1161 c 2,25,-1
 1747 1022 l 2,26,27
 1747 458 1747 458 1230 425 c 1,28,29
 725 456 725 456 725 1022 c 2,30,-1
 725 1133 l 2,31,32
 725 1246 725 1246 759 1349 c 1,33,34
 696 1453 696 1453 596 1453 c 0,35,36
 427 1453 427 1453 427 1189 c 2,37,-1
 427 1096 l 2,38,39
 427 885 427 885 534.5 659.5 c 128,-1,40
 642 434 642 434 907 364 c 1,41,42
 1450 283 1450 283 1451 0 c 1,43,-1
 1050 0 l 1,44,45
 1034 150 1034 150 757 152 c 1,46,47
 551 150 551 150 390 6 c 1,48,-1
 240 253 l 1,10,11
EndSplineSet
EndChar
StartChar: uni1C94
Encoding: 7316 7316 7316
Width: 1274
Flags: W
LayerCount: 2
Fore
SplineSet
1154 473 m 2,0,1
 1154 -30 1154 -30 621 -30 c 0,2,3
 100 -30 100 -30 101 480 c 1,4,-1
 138 756 l 1,5,-1
 487 756 l 1,6,-1
 426 424 l 1,7,8
 426 212 426 212 627 212 c 1,9,10
 848 210 848 210 846 430 c 1,11,-1
 846 1326 l 2,12,13
 846 1454 846 1454 655 1454 c 0,14,15
 505 1454 505 1454 503 1284 c 1,16,-1
 537 1024 l 1,17,-1
 205 1024 l 1,18,-1
 189 1282 l 1,19,20
 189 1696 189 1696 669 1696 c 0,21,22
 1154 1696 1154 1696 1154 1301 c 2,23,-1
 1154 473 l 2,0,1
EndSplineSet
EndChar
StartChar: uni1C95
Encoding: 7317 7317 7317
Width: 1274
Flags: W
LayerCount: 2
Fore
SplineSet
1117 1268 m 1,0,1
 1115 1051 1115 1051 898 931 c 1,2,3
 1154 860 1154 860 1154 593 c 2,4,-1
 1154 476 l 2,5,6
 1154 -30 1154 -30 627 -30 c 0,7,8
 100 -30 100 -30 100 502 c 1,9,-1
 127 746 l 1,10,-1
 462 746 l 1,11,-1
 426 437 l 1,12,13
 426 212 426 212 627 212 c 0,14,15
 836 212 836 212 836 430 c 2,16,-1
 836 588 l 2,17,18
 836 770 836 770 723 770 c 2,19,-1
 590 770 l 1,20,-1
 590 1022 l 1,21,-1
 682 1022 l 1,22,23
 790 1023 790 1023 789 1318 c 0,24,25
 789 1455 789 1455 628 1455 c 1,26,27
 462 1453 462 1453 459 1294 c 1,28,-1
 485 1112 l 1,29,-1
 156 1112 l 1,30,-1
 147 1274 l 1,31,32
 147 1696 147 1696 628 1696 c 0,33,34
 1117 1696 1117 1696 1117 1268 c 1,0,1
EndSplineSet
EndChar
StartChar: uni1C96
Encoding: 7318 7318 7318
Width: 1353
Flags: W
LayerCount: 2
Fore
SplineSet
422 1118 m 1,0,1
 464 1142 464 1142 515 1156.5 c 128,-1,2
 566 1171 566 1171 628 1179 c 1,3,-1
 631 1213 l 1,4,5
 631 1454 631 1454 507 1454 c 0,6,7
 387 1454 387 1454 387 1292 c 0,8,9
 387 1240 387 1240 396.5 1195 c 128,-1,10
 406 1150 406 1150 422 1118 c 1,0,1
922 632 m 2,11,12
 922 952 922 952 706 952 c 0,13,14
 470 952 470 952 470 630 c 2,15,-1
 470 560 l 2,16,17
 470 212 470 212 701 212 c 0,18,19
 922 212 922 212 922 552 c 2,20,-1
 922 632 l 2,11,12
1253 565 m 2,21,22
 1253 -30 1253 -30 699 -30 c 0,23,24
 143 -30 143 -30 143 574 c 2,25,-1
 143 639 l 2,26,27
 143 704 143 704 164 778 c 128,-1,28
 185 852 185 852 230 940 c 1,29,30
 60 1089 60 1089 60 1278 c 0,31,32
 60 1696 60 1696 498 1696 c 0,33,34
 948 1696 948 1696 948 1214 c 1,35,36
 944 1174 944 1174 941 1145 c 1,37,38
 1253 999 1253 999 1253 635 c 2,39,-1
 1253 565 l 2,21,22
EndSplineSet
EndChar
StartChar: uni1C97
Encoding: 7319 7319 7319
Width: 1832
Flags: W
LayerCount: 2
Fore
SplineSet
783 1210 m 2,0,1
 783 1454 783 1454 607 1454 c 0,2,3
 424 1454 424 1454 424 1210 c 2,4,-1
 424 490 l 2,5,6
 424 212 424 212 607 212 c 0,7,8
 783 212 783 212 783 490 c 2,9,-1
 783 1210 l 2,0,1
1732 704 m 1,10,11
 1723 284 1723 284 1502 0 c 1,12,-1
 1116 0 l 1,13,14
 1224 137 1224 137 1307.5 315 c 128,-1,15
 1391 493 1391 493 1403 707 c 1,16,-1
 1403 1210 l 2,17,18
 1403 1446 1403 1446 1252 1446 c 1,19,20
 1108 1444 1108 1444 1108 1292 c 2,21,-1
 1108 560 l 2,22,23
 1108 -29 1108 -29 597 -29 c 0,24,25
 100 -29 100 -29 100 560 c 2,26,-1
 100 1140 l 2,27,28
 100 1696 100 1696 607 1696 c 1,29,30
 812 1698 812 1698 951 1549 c 1,31,32
 1012 1621 1012 1621 1095.5 1653.5 c 128,-1,33
 1179 1686 1179 1686 1294 1686 c 0,34,35
 1731 1686 1731 1686 1732 1140 c 1,36,-1
 1732 704 l 1,10,11
EndSplineSet
EndChar
StartChar: uni1C98
Encoding: 7320 7320 7320
Width: 1207
Flags: W
LayerCount: 2
Fore
SplineSet
1107 760 m 2,0,1
 1107 405 1107 405 986 0 c 1,2,-1
 645 0 l 1,3,4
 781 353 781 353 781 760 c 2,5,-1
 781 1213 l 2,6,7
 781 1454 781 1454 626 1454 c 0,8,9
 427 1454 427 1454 427 1213 c 2,10,-1
 427 760 l 2,11,12
 427 560 427 560 463.5 371.5 c 128,-1,13
 500 183 500 183 573 0 c 1,14,-1
 230 0 l 1,15,16
 100 393 100 393 100 760 c 2,17,-1
 100 1143 l 2,18,19
 100 1696 100 1696 626 1696 c 0,20,21
 1107 1696 1107 1696 1107 1143 c 2,22,-1
 1107 760 l 2,0,1
EndSplineSet
EndChar
StartChar: uni1C99
Encoding: 7321 7321 7321
Width: 1274
Flags: W
LayerCount: 2
Fore
SplineSet
1154 471 m 1,0,1
 1153 -28 1153 -28 627 -28 c 0,2,3
 100 -28 100 -28 100 485 c 1,4,-1
 117 755 l 1,5,-1
 451 755 l 1,6,-1
 426 422 l 1,7,8
 426 213 426 213 627 212 c 1,9,10
 836 212 836 212 836 411 c 2,11,-1
 836 583 l 2,12,13
 836 832 836 832 715 832 c 2,14,-1
 554 832 l 1,15,-1
 554 1082 l 1,16,-1
 648 1082 l 1,17,18
 836 1081 836 1081 836 1320 c 0,19,20
 836 1447 836 1447 586 1679 c 1,21,-1
 1039 1679 l 1,22,23
 1154 1461 1154 1461 1154 1353 c 0,24,25
 1154 1125 1154 1125 961 1010 c 1,26,27
 1154 884 1154 884 1154 588 c 2,28,-1
 1154 471 l 1,0,1
EndSplineSet
EndChar
StartChar: uni1C9A
Encoding: 7322 7322 7322
Width: 2381
Flags: W
LayerCount: 2
Fore
SplineSet
313 203 m 1,0,1
 396 313 396 313 531 379 c 1,2,3
 142 621 142 621 100 1063 c 1,4,-1
 100 1182 l 2,5,6
 100 1687 100 1687 585 1687 c 0,7,8
 752 1687 752 1687 901 1552 c 1,9,10
 1009 1696 1009 1696 1194 1696 c 0,11,12
 1378 1696 1378 1696 1489 1552 c 1,13,14
 1610 1687 1610 1687 1804 1687 c 0,15,16
 2281 1687 2281 1687 2281 1192 c 2,17,-1
 2281 1096 l 2,18,19
 2281 916 2281 916 2050 490 c 1,20,-1
 1700 490 l 1,21,22
 1967 947 1967 947 1967 1128 c 2,23,-1
 1967 1187 l 1,24,25
 1968 1445 1968 1445 1806 1445 c 0,26,27
 1641 1445 1641 1445 1641 1277 c 2,28,-1
 1641 886 l 1,29,-1
 1331 886 l 1,30,-1
 1331 1277 l 2,31,32
 1331 1468 1331 1468 1195 1468 c 0,33,34
 1064 1468 1064 1468 1064 1277 c 2,35,-1
 1064 886 l 1,36,-1
 753 886 l 1,37,-1
 753 1277 l 1,38,39
 752 1445 752 1445 584 1445 c 0,40,41
 427 1445 427 1445 427 1185 c 2,42,-1
 427 1077 l 1,43,44
 448 883 448 883 546 734 c 128,-1,45
 644 585 644 585 818 488 c 1,46,47
 945 496 945 496 1054 494 c 1,48,49
 1590 460 1590 460 1910 0 c 1,50,-1
 1448 0 l 1,51,52
 1407 169 1407 169 1283.5 214 c 128,-1,53
 1160 259 1160 259 993 259 c 0,54,55
 782 259 782 259 513 -13 c 1,56,-1
 313 203 l 1,0,1
EndSplineSet
EndChar
StartChar: uni1C9B
Encoding: 7323 7323 7323
Width: 1282
Flags: W
LayerCount: 2
Fore
SplineSet
845 897 m 1,0,1
 707 931 707 931 647 932 c 1,2,3
 427 932 427 932 427 681 c 2,4,-1
 427 509 l 2,5,6
 427 212 427 212 646 212 c 0,7,8
 845 212 845 212 845 490 c 2,9,-1
 845 897 l 1,0,1
1152 499 m 2,10,11
 1152 -29 1152 -29 646 -29 c 0,12,13
 100 -29 100 -29 100 499 c 2,14,-1
 100 662 l 2,15,16
 100 1188 100 1188 624 1189 c 0,17,18
 682 1189 682 1189 846 1156 c 1,19,-1
 846 1268 l 2,20,21
 846 1452 846 1452 653 1454 c 0,22,23
 470 1455 470 1455 467 1308 c 1,24,-1
 152 1308 l 1,25,26
 152 1695 152 1695 640 1695 c 0,27,28
 1152 1695 1152 1695 1152 1264 c 2,29,-1
 1152 499 l 2,10,11
EndSplineSet
EndChar
StartChar: uni1C9C
Encoding: 7324 7324 7324
Width: 1284
Flags: W
LayerCount: 2
Fore
SplineSet
866 685 m 2,0,1
 866 952 866 952 650 952 c 0,2,3
 542 952 542 952 448 908 c 1,4,-1
 448 485 l 2,5,6
 448 211 448 211 662 211 c 0,7,8
 866 211 866 211 866 471 c 2,9,-1
 866 685 l 2,0,1
1184 475 m 2,10,11
 1184 -30 1184 -30 650 -30 c 0,12,13
 130 -30 130 -30 130 475 c 2,14,-1
 130 1271 l 2,15,16
 130 1679 130 1679 520 1679 c 2,17,-1
 1076 1679 l 1,18,-1
 1076 1436 l 1,19,-1
 524 1436 l 2,20,21
 438 1436 438 1436 438 1268 c 2,22,-1
 438 1170 l 1,23,24
 599 1208 599 1208 652 1208 c 0,25,26
 1184 1208 1184 1208 1184 709 c 2,27,-1
 1184 475 l 2,10,11
EndSplineSet
EndChar
StartChar: uni1C9D
Encoding: 7325 7325 7325
Width: 1828
Flags: W
LayerCount: 2
Fore
SplineSet
1718 707 m 2,0,1
 1718 311 1718 311 1438 0 c 1,2,-1
 1061 0 l 1,3,4
 1394 401 1394 401 1394 708 c 2,5,-1
 1394 1220 l 2,6,7
 1394 1455 1394 1455 1216 1455 c 0,8,9
 1077 1455 1077 1455 1077 1297 c 2,10,-1
 1077 574 l 1,11,-1
 756 574 l 1,12,-1
 756 1305 l 2,13,14
 756 1455 756 1455 583 1455 c 0,15,16
 438 1455 438 1455 438 1220 c 2,17,-1
 438 708 l 2,18,19
 438 395 438 395 735 0 c 1,20,-1
 370 0 l 1,21,22
 110 311 110 311 110 708 c 2,23,-1
 110 1140 l 2,24,25
 110 1696 110 1696 602 1696 c 0,26,27
 802 1696 802 1696 923 1548 c 1,28,29
 1044 1696 1044 1696 1216 1696 c 0,30,31
 1718 1696 1718 1696 1718 1140 c 2,32,-1
 1718 707 l 2,0,1
EndSplineSet
EndChar
StartChar: uni1C9E
Encoding: 7326 7326 7326
Width: 1254
Flags: W
LayerCount: 2
Fore
SplineSet
1154 452 m 2,0,1
 1154 -31 1154 -31 646 -31 c 0,2,3
 100 -31 100 -31 100 471 c 1,4,-1
 113 681 l 1,5,-1
 442 681 l 1,6,-1
 427 465 l 1,7,8
 427 212 427 212 641 212 c 0,9,10
 836 212 836 212 836 466 c 2,11,-1
 836 529 l 1,12,13
 837 702 837 702 734 704 c 1,14,-1
 558 704 l 1,15,-1
 558 967 l 1,16,-1
 637 967 l 2,17,18
 816 967 816 967 818 1144 c 1,19,20
 818 1267 818 1267 622 1340.5 c 128,-1,21
 426 1414 426 1414 426 1678 c 1,22,-1
 781 1678 l 1,23,24
 780 1518 780 1518 958 1391.5 c 128,-1,25
 1136 1265 1136 1265 1136 1152 c 0,26,27
 1136 955 1136 955 906 852 c 1,28,29
 1154 775 1154 775 1154 487 c 2,30,-1
 1154 452 l 2,0,1
EndSplineSet
EndChar
StartChar: uni1C9F
Encoding: 7327 7327 7327
Width: 1283
Flags: W
LayerCount: 2
Fore
SplineSet
1153 481 m 2,0,1
 1153 -31 1153 -31 622 -31 c 0,2,3
 100 -31 100 -31 100 563 c 1,4,-1
 427 563 l 1,5,6
 427 212 427 212 622 212 c 0,7,8
 834 212 834 212 834 481 c 2,9,-1
 834 1440 l 1,10,-1
 536 1412 l 1,11,12
 756 1289 756 1289 756 1135 c 0,13,14
 756 726 756 726 101 728 c 1,15,-1
 101 988 l 1,16,17
 452 986 452 986 450 1132 c 1,18,19
 452 1264 452 1264 101 1353 c 1,20,-1
 101 1580 l 1,21,-1
 1153 1721 l 1,22,-1
 1153 481 l 2,0,1
EndSplineSet
EndChar
StartChar: uni1CA0
Encoding: 7328 7328 7328
Width: 1893
Flags: W
LayerCount: 2
Fore
SplineSet
1793 677 m 2,0,1
 1793 273 1793 273 1494 0 c 1,2,-1
 1097 0 l 1,3,4
 1458 389 1458 389 1458 685 c 2,5,-1
 1458 876 l 2,6,7
 1458 1080 1458 1080 1289 1081 c 1,8,9
 1114 1081 1114 1081 1113 910 c 1,10,-1
 1113 476 l 1,11,-1
 784 476 l 1,12,-1
 784 910 l 2,13,14
 784 1080 784 1080 595 1080 c 0,15,16
 427 1080 427 1080 427 876 c 2,17,-1
 427 677 l 2,18,19
 427 393 427 393 803 0 c 1,20,-1
 408 0 l 1,21,22
 100 271 100 271 100 677 c 2,23,-1
 100 788 l 2,24,25
 100 1192 100 1192 382 1450 c 1,26,27
 656 1696 656 1696 1434 1696 c 1,28,-1
 1434 1454 l 1,29,30
 713 1455 713 1455 544 1262 c 1,31,32
 842 1340 842 1340 953 1168 c 1,33,34
 1082 1320 1082 1320 1272 1320 c 0,35,36
 1791 1320 1791 1320 1793 793 c 1,37,-1
 1793 677 l 2,0,1
EndSplineSet
EndChar
StartChar: uni1CA1
Encoding: 7329 7329 7329
Width: 1284
Flags: W
LayerCount: 2
Fore
SplineSet
1184 490 m 2,0,1
 1184 -29 1184 -29 650 -29 c 0,2,3
 130 -29 130 -29 130 574 c 2,4,-1
 130 1678 l 1,5,-1
 448 1678 l 1,6,-1
 448 477 l 2,7,8
 448 212 448 212 652 212 c 0,9,10
 866 212 866 212 866 416 c 2,11,-1
 866 546 l 2,12,13
 866 704 866 704 748.5 825.5 c 128,-1,14
 631 947 631 947 628 1131 c 1,15,-1
 679 1381 l 1,16,-1
 1022 1381 l 1,17,-1
 937 1117 l 1,18,19
 937 986 937 986 1060.5 879.5 c 128,-1,20
 1184 773 1184 773 1184 532 c 2,21,-1
 1184 490 l 2,0,1
EndSplineSet
EndChar
StartChar: uni1CA2
Encoding: 7330 7330 7330
Width: 1524
Flags: W
LayerCount: 2
Fore
SplineSet
594 653 m 1,0,-1
 654 1394 l 1,1,2
 489 1322 489 1322 454 1225.5 c 128,-1,3
 419 1129 419 1129 417 964 c 1,4,-1
 417 662 l 1,5,6
 415 518 415 518 506 364 c 128,-1,7
 597 210 597 210 764 212 c 1,8,9
 935 212 935 212 1019.5 367.5 c 128,-1,10
 1104 523 1104 523 1104 662 c 2,11,-1
 1104 961 l 2,12,13
 1104 1123 1104 1123 1051 1224 c 128,-1,14
 998 1325 998 1325 850 1388 c 1,15,-1
 901 653 l 1,16,-1
 594 653 l 1,0,-1
900 1696 m 1,17,-1
 883 1626 l 1,18,19
 1190 1522 1190 1522 1312 1329.5 c 128,-1,20
 1434 1137 1434 1137 1432 966 c 1,21,-1
 1432 657 l 1,22,23
 1434 455 1434 455 1282 213 c 128,-1,24
 1130 -29 1130 -29 760 -29 c 0,25,26
 408 -29 408 -29 249 210 c 128,-1,27
 90 449 90 449 90 657 c 2,28,-1
 90 965 l 1,29,30
 91 1141 91 1141 186.5 1334.5 c 128,-1,31
 282 1528 282 1528 639 1626 c 1,32,-1
 612 1696 l 1,33,-1
 900 1696 l 1,17,-1
EndSplineSet
EndChar
StartChar: uni1CA3
Encoding: 7331 7331 7331
Width: 1298
Flags: W
LayerCount: 2
Fore
SplineSet
1167 509 m 1,0,1
 1168 -29 1168 -29 663 -29 c 0,2,3
 117 -29 117 -29 113 479 c 1,4,-1
 153 775 l 1,5,-1
 495 775 l 1,6,-1
 441 430 l 1,7,8
 441 212 441 212 668 212 c 0,9,10
 859 212 859 212 859 407 c 2,11,-1
 859 1343 l 1,12,13
 858 1454 858 1454 779 1454 c 0,14,15
 671 1454 671 1454 672 1333 c 1,16,-1
 672 995 l 1,17,-1
 374 995 l 1,18,-1
 374 1351 l 1,19,20
 372 1454 372 1454 273 1454 c 2,21,-1
 70 1454 l 1,22,-1
 70 1696 l 1,23,-1
 276 1696 l 2,24,25
 423 1696 423 1696 499 1542 c 1,26,27
 599 1696 599 1696 747 1696 c 0,28,29
 1167 1696 1167 1696 1167 1297 c 2,30,-1
 1167 509 l 1,0,1
EndSplineSet
EndChar
StartChar: uni1CA4
Encoding: 7332 7332 7332
Width: 1815
Flags: W
LayerCount: 2
Fore
SplineSet
781 1262 m 2,0,1
 781 1454 781 1454 600 1454 c 0,2,3
 427 1454 427 1454 427 1266 c 2,4,-1
 427 916 l 2,5,6
 427 708 427 708 613 708 c 0,7,8
 781 708 781 708 781 916 c 2,9,-1
 781 1262 l 2,0,1
1695 488 m 1,10,11
 1693 276 1693 276 1525 123.5 c 128,-1,12
 1357 -29 1357 -29 1058 -29 c 2,13,-1
 965 -29 l 2,14,15
 743 -29 743 -29 565 88.5 c 128,-1,16
 387 206 387 206 387 369 c 1,17,-1
 727 369 l 1,18,19
 727 305 727 305 806 258.5 c 128,-1,20
 885 212 885 212 977 212 c 2,21,-1
 1046 212 l 2,22,23
 1196 212 1196 212 1284.5 292.5 c 128,-1,24
 1373 373 1373 373 1373 487 c 0,25,26
 1373 681 1373 681 1330 681 c 2,27,-1
 1173 681 l 1,28,-1
 1173 915 l 1,29,-1
 1239 915 l 1,30,31
 1392 978 1392 978 1392 1207 c 0,32,33
 1392 1449 1392 1449 1219 1449 c 0,34,35
 1148 1449 1148 1449 1070 1369 c 1,36,37
 1086 1315 1086 1315 1093 1256 c 128,-1,38
 1100 1197 1100 1197 1099 1132 c 1,39,-1
 1099 1026 l 2,40,41
 1099 462 1099 462 613 464 c 1,42,43
 100 462 100 462 100 1026 c 2,44,-1
 100 1156 l 2,45,46
 100 1696 100 1696 597 1696 c 0,47,48
 821 1696 821 1696 941 1569 c 1,49,50
 1066 1690 1066 1690 1241 1690 c 0,51,52
 1714 1690 1714 1690 1714 1250 c 1,53,54
 1715 1018 1715 1018 1480 843 c 1,55,56
 1693 744 1693 744 1695 488 c 1,10,11
EndSplineSet
EndChar
StartChar: uni1CA5
Encoding: 7333 7333 7333
Width: 1283
Flags: W
LayerCount: 2
Fore
SplineSet
1153 475 m 2,0,1
 1153 -29 1153 -29 620 -29 c 1,2,3
 100 -28 100 -28 100 479 c 1,4,-1
 131 728 l 1,5,-1
 477 728 l 1,6,-1
 427 472 l 1,7,8
 429 212 429 212 622 212 c 0,9,10
 846 212 846 212 846 480 c 2,11,-1
 846 988 l 1,12,13
 668 1352 668 1352 557 1354 c 1,14,15
 451 1351 451 1351 448 1245 c 1,16,-1
 482 995 l 1,17,-1
 163 995 l 1,18,-1
 137 1231 l 1,19,20
 137 1609 137 1609 553 1607 c 0,21,22
 697 1607 697 1607 846 1427 c 1,23,-1
 846 1678 l 1,24,-1
 1153 1678 l 1,25,-1
 1153 475 l 2,0,1
EndSplineSet
EndChar
StartChar: uni1CA6
Encoding: 7334 7334 7334
Width: 1858
Flags: W
LayerCount: 2
Fore
SplineSet
225 221 m 1,0,1
 316 298 316 298 447 352 c 1,2,3
 100 632 100 632 100 1110 c 2,4,-1
 100 1180 l 2,5,6
 100 1696 100 1696 599 1696 c 0,7,8
 801 1696 801 1696 927 1524 c 1,9,10
 1049 1696 1049 1696 1257 1696 c 0,11,12
 1509 1696 1509 1696 1632.5 1573 c 128,-1,13
 1756 1450 1756 1450 1757 1201 c 1,14,-1
 1757 1111 l 1,15,16
 1758 888 1758 888 1572 504 c 1,17,-1
 1196 504 l 1,18,19
 1428 884 1428 884 1428 1106 c 2,20,-1
 1428 1293 l 2,21,22
 1428 1454 1428 1454 1261 1454 c 0,23,24
 1082 1454 1082 1454 1082 1239 c 2,25,-1
 1082 784 l 1,26,-1
 773 784 l 1,27,-1
 773 1240 l 2,28,29
 773 1454 773 1454 599 1454 c 0,30,31
 426 1454 426 1454 427 1290 c 1,32,-1
 427 1078 l 1,33,34
 426 693 426 693 771 416 c 1,35,36
 890 394 890 394 964 379 c 1,37,38
 1408 259 1408 259 1479 1 c 1,39,-1
 1072 1 l 1,40,41
 1070 50 1070 50 982 102 c 128,-1,42
 894 154 894 154 768 158 c 1,43,44
 578 157 578 157 348 18 c 1,45,-1
 225 221 l 1,0,1
EndSplineSet
EndChar
StartChar: uni1CA7
Encoding: 7335 7335 7335
Width: 1282
Flags: W
LayerCount: 2
Fore
SplineSet
1152 470 m 2,0,1
 1152 -29 1152 -29 622 -29 c 0,2,3
 100 -29 100 -29 100 430 c 1,4,-1
 113 707 l 1,5,-1
 444 707 l 1,6,-1
 426 433 l 1,7,8
 427 212 427 212 622 212 c 0,9,10
 846 212 846 212 846 441 c 2,11,-1
 846 844 l 1,12,13
 750 791 750 791 634 793 c 1,14,15
 128 791 128 791 128 1250 c 2,16,-1
 128 1287 l 2,17,18
 128 1452 128 1452 220 1680 c 1,19,-1
 599 1680 l 1,20,21
 455 1427 455 1427 455 1297 c 2,22,-1
 455 1259 l 2,23,24
 455 1031 455 1031 622 1030 c 0,25,26
 777 1030 777 1030 846 1117 c 1,27,-1
 846 1680 l 1,28,-1
 1152 1680 l 1,29,-1
 1152 470 l 2,0,1
EndSplineSet
EndChar
StartChar: uni1CA8
Encoding: 7336 7336 7336
Width: 1272
Flags: W
LayerCount: 2
Fore
SplineSet
836 871 m 1,0,1
 684 912 684 912 617 912 c 0,2,3
 418 912 418 912 418 624 c 2,4,-1
 418 518 l 1,5,6
 416 215 416 215 626 215 c 0,7,8
 836 215 836 215 836 476 c 2,9,-1
 836 871 l 1,0,1
1142 494 m 2,10,11
 1142 -29 1142 -29 635 -29 c 0,12,13
 90 -29 90 -29 90 509 c 2,14,-1
 90 643 l 1,15,16
 91 1169 91 1169 617 1169 c 1,17,18
 668 1168 668 1168 836 1137 c 1,19,-1
 836 1385 l 2,20,21
 836 1454 836 1454 748 1454 c 0,22,23
 655 1454 655 1454 655 1383 c 2,24,-1
 655 1272 l 1,25,-1
 352 1272 l 1,26,-1
 352 1383 l 2,27,28
 352 1454 352 1454 90 1454 c 1,29,-1
 90 1696 l 1,30,31
 414 1696 414 1696 484 1563 c 1,32,33
 584 1696 584 1696 758 1696 c 0,34,35
 1142 1696 1142 1696 1142 1339 c 2,36,-1
 1142 494 l 2,10,11
EndSplineSet
EndChar
StartChar: uni1CA9
Encoding: 7337 7337 7337
Width: 1287
Flags: W
LayerCount: 2
Fore
SplineSet
656 1260 m 1,0,-1
 667 1394 l 1,1,2
 664 1453 664 1453 557 1453 c 0,3,4
 449 1453 449 1453 449 1352 c 2,5,-1
 449 1145 l 1,6,7
 566 1189 566 1189 681 1188 c 1,8,9
 1187 1188 1187 1188 1185 699 c 1,10,-1
 1185 611 l 2,11,12
 1185 362 1185 362 1053 0 c 1,13,-1
 688 0 l 1,14,15
 867 400 867 400 867 560 c 2,16,-1
 867 723 l 2,17,18
 867 933 867 933 666 932 c 1,19,20
 583 933 583 933 449 867 c 1,21,-1
 449 0 l 1,22,-1
 132 0 l 1,23,-1
 132 1228 l 1,24,25
 130 1696 130 1696 524 1696 c 0,26,27
 957 1696 957 1696 958 1395 c 1,28,-1
 943 1260 l 1,29,-1
 656 1260 l 1,0,-1
EndSplineSet
EndChar
StartChar: uni1CAA
Encoding: 7338 7338 7338
Width: 1387
Flags: W
LayerCount: 2
Fore
SplineSet
1240 1250 m 1,0,1
 1242 1093 1242 1093 1045 960 c 1,2,3
 1287 849 1287 849 1287 593 c 0,4,5
 1287 317 1287 317 1138.5 144.5 c 128,-1,6
 990 -28 990 -28 710 -30 c 1,7,8
 414 -30 414 -30 257 165.5 c 128,-1,9
 100 361 100 361 102 669 c 1,10,-1
 102 1055 l 1,11,12
 100 1341 100 1341 163 1679 c 1,13,-1
 515 1679 l 1,14,15
 432 1279 432 1279 432 1055 c 2,16,-1
 432 669 l 1,17,18
 429 500 429 500 494 355.5 c 128,-1,19
 559 211 559 211 710 211 c 0,20,21
 822 211 822 211 890.5 320 c 128,-1,22
 959 429 959 429 959 581 c 1,23,24
 957 770 957 770 851 770 c 2,25,-1
 580 770 l 1,26,-1
 580 1016 l 1,27,-1
 720 1016 l 1,28,29
 912 1015 912 1015 912 1245 c 0,30,31
 912 1342 912 1342 809 1411.5 c 128,-1,32
 706 1481 706 1481 707 1679 c 1,33,-1
 1028 1679 l 1,34,35
 1028 1576 1028 1576 1134.5 1512.5 c 128,-1,36
 1241 1449 1241 1449 1240 1250 c 1,0,1
EndSplineSet
EndChar
StartChar: uni1CAB
Encoding: 7339 7339 7339
Width: 1282
Flags: W
LayerCount: 2
Fore
SplineSet
846 906 m 1,0,1
 762 952 762 952 618 952 c 0,2,3
 427 952 427 952 427 624 c 2,4,-1
 427 541 l 2,5,6
 427 215 427 215 618 215 c 0,7,8
 846 215 846 215 846 532 c 2,9,-1
 846 906 l 1,0,1
1152 509 m 2,10,11
 1152 -28 1152 -28 627 -28 c 0,12,13
 100 -28 100 -28 100 555 c 2,14,-1
 100 624 l 2,15,16
 100 1207 100 1207 627 1207 c 1,17,18
 710 1208 710 1208 846 1172 c 1,19,-1
 846 1678 l 1,20,-1
 1152 1678 l 1,21,-1
 1152 509 l 2,10,11
EndSplineSet
EndChar
StartChar: uni1CAC
Encoding: 7340 7340 7340
Width: 1272
Flags: W
LayerCount: 2
Fore
SplineSet
436 476 m 2,0,1
 436 211 436 211 646 211 c 0,2,3
 856 211 856 211 854 518 c 1,4,-1
 854 624 l 2,5,6
 854 912 854 912 655 912 c 0,7,8
 588 912 588 912 436 871 c 1,9,-1
 436 476 l 2,0,1
130 1339 m 2,10,11
 130 1696 130 1696 514 1696 c 0,12,13
 688 1696 688 1696 788 1563 c 1,14,15
 858 1696 858 1696 1182 1696 c 1,16,-1
 1182 1454 l 1,17,18
 920 1454 920 1454 920 1383 c 2,19,-1
 920 1272 l 1,20,-1
 617 1272 l 1,21,-1
 617 1383 l 2,22,23
 617 1454 617 1454 524 1454 c 0,24,25
 436 1454 436 1454 436 1385 c 2,26,-1
 436 1138 l 1,27,28
 604 1169 604 1169 655 1170 c 1,29,30
 1181 1170 1181 1170 1182 643 c 1,31,-1
 1182 509 l 2,32,33
 1182 -29 1182 -29 637 -29 c 0,34,35
 130 -29 130 -29 130 494 c 2,36,-1
 130 1339 l 2,10,11
EndSplineSet
EndChar
StartChar: uni1CAD
Encoding: 7341 7341 7341
Width: 1290
Flags: W
LayerCount: 2
Fore
SplineSet
454 1190 m 0,0,1
 454 1082 454 1082 556 1082 c 2,2,-1
 721 1082 l 1,3,-1
 676 1295 l 1,4,-1
 559 1295 l 2,5,6
 454 1295 454 1295 454 1190 c 0,0,1
1189 1295 m 1,7,-1
 994 1295 l 1,8,-1
 1034 1082 l 1,9,-1
 1190 1082 l 1,10,-1
 1190 857 l 1,11,-1
 1082 857 l 1,12,-1
 1154 479 l 1,13,14
 1154 -29 1154 -29 621 -29 c 0,15,16
 100 -29 100 -29 100 476 c 1,17,-1
 137 668 l 1,18,-1
 482 668 l 1,19,-1
 428 431 l 1,20,21
 429 211 429 211 623 211 c 0,22,23
 837 211 837 211 837 440 c 1,24,-1
 758 857 l 1,25,-1
 613 857 l 2,26,27
 156 857 156 857 156 1185 c 0,28,29
 156 1522 156 1522 616 1522 c 2,30,-1
 619 1522 l 1,31,-1
 584 1679 l 1,32,-1
 922 1679 l 1,33,-1
 953 1522 l 1,34,-1
 1189 1522 l 1,35,-1
 1189 1295 l 1,7,-1
EndSplineSet
EndChar
StartChar: uni1CAE
Encoding: 7342 7342 7342
Width: 1284
Flags: W
LayerCount: 2
Fore
SplineSet
866 727 m 2,0,1
 866 952 866 952 653 951 c 0,2,3
 602 950 602 950 449 897 c 1,4,-1
 449 477 l 2,5,6
 449 210 449 210 666 210 c 0,7,8
 866 210 866 210 866 467 c 2,9,-1
 866 727 l 2,0,1
1184 541 m 2,10,11
 1184 -29 1184 -29 666 -29 c 0,12,13
 130 -29 130 -29 130 532 c 2,14,-1
 130 1678 l 1,15,-1
 449 1678 l 1,16,-1
 449 1176 l 1,17,18
 603 1208 603 1208 652 1208 c 0,19,20
 1184 1207 1184 1207 1184 630 c 2,21,-1
 1184 541 l 2,10,11
EndSplineSet
EndChar
StartChar: uni1CAF
Encoding: 7343 7343 7343
Width: 1169
Flags: W
LayerCount: 2
Fore
SplineSet
1119 971 m 1,0,-1
 996 750 l 1,1,-1
 677 910 l 1,2,-1
 591 749 l 1,3,4
 892 631 892 631 892 419 c 0,5,6
 892 218 892 218 724.5 94.5 c 128,-1,7
 557 -29 557 -29 116 -29 c 1,8,-1
 116 235 l 1,9,10
 425 235 425 235 494.5 269.5 c 128,-1,11
 564 304 564 304 564 401 c 0,12,13
 563 543 563 543 358 576 c 1,14,-1
 201 670 l 1,15,-1
 417 1045 l 1,16,-1
 50 1223 l 1,17,-1
 177 1446 l 1,18,-1
 537 1262 l 1,19,-1
 602 1381 l 1,20,21
 656 1490 656 1490 566 1493 c 1,22,-1
 364 1446 l 1,23,-1
 364 1696 l 1,24,-1
 585 1696 l 2,25,26
 750 1696 750 1696 831 1612 c 1,27,28
 948 1487 948 1487 885 1269 c 1,29,-1
 802 1125 l 1,30,-1
 1119 971 l 1,0,-1
EndSplineSet
EndChar
StartChar: uni1CB0
Encoding: 7344 7344 7344
Width: 1273
Flags: W
LayerCount: 2
Fore
SplineSet
1153 429 m 0,0,1
 1153 -30 1153 -30 622 -30 c 0,2,3
 100 -30 100 -30 100 548 c 1,4,-1
 427 548 l 1,5,6
 427 211 427 211 622 211 c 0,7,8
 829 211 829 211 829 429 c 0,9,10
 829 566 829 566 760 566 c 2,11,-1
 529 566 l 1,12,-1
 529 827 l 1,13,-1
 741 827 l 2,14,15
 810 827 810 827 810 904 c 0,16,17
 810 970 810 970 740 971 c 1,18,-1
 510 971 l 1,19,-1
 510 1234 l 1,20,-1
 741 1234 l 2,21,22
 789 1234 789 1234 789 1330 c 0,23,24
 789 1453 789 1453 487 1453 c 2,25,-1
 302 1453 l 1,26,-1
 302 1696 l 1,27,-1
 487 1696 l 2,28,29
 1116 1696 1116 1696 1116 1330 c 0,30,31
 1116 1200 1116 1200 982 1100 c 1,32,33
 1133 1016 1133 1016 1135 896 c 1,34,35
 1135 786 1135 786 1013 687 c 1,36,37
 1153 576 1153 576 1153 429 c 0,0,1
EndSplineSet
EndChar
StartChar: uni1CB1
Encoding: 7345 7345 7345
Width: 1292
Flags: W
LayerCount: 2
Fore
SplineSet
657 -31 m 0,0,1
 130 -31 130 -31 130 473 c 2,2,-1
 130 1549 l 1,3,-1
 448 1549 l 1,4,-1
 448 473 l 2,5,6
 448 212 448 212 658 212 c 0,7,8
 859 212 859 212 859 424 c 0,9,10
 859 588 859 588 810 589 c 1,11,-1
 608 589 l 1,12,-1
 608 848 l 1,13,-1
 794 848 l 2,14,15
 838 848 838 848 842 922 c 1,16,-1
 842 925 l 1,17,18
 837 994 837 994 790 994 c 2,19,-1
 590 994 l 1,20,-1
 590 1258 l 1,21,-1
 789 1258 l 2,22,23
 819 1258 819 1258 819 1381 c 0,24,25
 819 1454 819 1454 571 1454 c 1,26,-1
 571 1696 l 1,27,28
 1146 1696 1146 1696 1146 1367 c 1,29,30
 1149 1232 1149 1232 991 1134 c 1,31,32
 1165 1034 1165 1034 1165 921 c 0,33,34
 1164 795 1164 795 1018 714 c 1,35,36
 1182 602 1182 602 1182 424 c 0,37,38
 1182 -31 1182 -31 657 -31 c 0,0,1
EndSplineSet
EndChar
StartChar: uni1CB2
Encoding: 7346 7346 7346
Width: 1254
Flags: W
LayerCount: 2
Fore
SplineSet
427 602 m 2,0,1
 427 388 427 388 625 284 c 1,2,3
 829 388 829 388 829 602 c 2,4,-1
 829 1232 l 2,5,6
 829 1453 829 1453 626 1453 c 0,7,8
 427 1453 427 1453 427 1232 c 2,9,-1
 427 602 l 2,0,1
100 121 m 1,10,11
 298 121 298 121 346 153 c 1,12,13
 100 403 100 403 100 722 c 2,14,-1
 100 1116 l 2,15,16
 100 1695 100 1695 625 1695 c 0,17,18
 1152 1695 1152 1695 1152 1112 c 2,19,-1
 1152 722 l 2,20,21
 1152 401 1152 401 897 145 c 1,22,23
 1000 121 1000 121 1154 121 c 1,24,-1
 1154 -150 l 1,25,26
 883 -150 883 -150 625 45 c 1,27,28
 375 -150 375 -150 100 -150 c 1,29,-1
 100 121 l 1,10,11
EndSplineSet
EndChar
StartChar: uni1CB3
Encoding: 7347 7347 7347
Width: 1252
Flags: W
LayerCount: 2
Fore
SplineSet
1152 426 m 2,0,1
 1152 -31 1152 -31 620 -31 c 0,2,3
 102 -31 102 -31 102 456 c 2,4,-1
 102 650 l 1,5,-1
 428 650 l 1,6,-1
 428 397 l 2,7,8
 428 212 428 212 627 212 c 0,9,10
 829 212 829 212 829 376 c 2,11,-1
 829 571 l 2,12,13
 829 788 829 788 677 788 c 2,14,-1
 440 788 l 1,15,-1
 440 1035 l 1,16,-1
 509 1035 l 1,17,18
 801 1036 801 1036 827 1452 c 1,19,-1
 430 1436 l 1,20,-1
 430 1212 l 1,21,-1
 100 1212 l 1,22,-1
 100 1676 l 1,23,-1
 1152 1700 l 1,24,25
 1152 1432 1152 1432 1085 1250 c 128,-1,26
 1018 1068 1018 1068 888 971 c 1,27,28
 1152 843 1152 843 1152 577 c 2,29,-1
 1152 426 l 2,0,1
EndSplineSet
EndChar
StartChar: uni1CB4
Encoding: 7348 7348 7348
Width: 1266
Flags: W
LayerCount: 2
Fore
SplineSet
1154 473 m 0,0,1
 1154 -31 1154 -31 623 -31 c 0,2,3
 100 -31 100 -31 100 473 c 2,4,-1
 100 612 l 1,5,-1
 428 612 l 1,6,-1
 428 393 l 2,7,8
 428 212 428 212 623 212 c 0,9,10
 829 212 829 212 829 393 c 0,11,12
 829 755 829 755 644 755 c 2,13,-1
 460 755 l 1,14,-1
 460 1010 l 1,15,-1
 561 1010 l 1,16,17
 672 1021 672 1021 738 1093 c 128,-1,18
 804 1165 804 1165 821 1299 c 1,19,20
 723 1255 723 1255 623 1255 c 0,21,22
 100 1253 100 1253 100 1696 c 1,23,-1
 427 1696 l 1,24,25
 427 1512 427 1512 623 1512 c 0,26,27
 781 1512 781 1512 898 1695 c 1,28,-1
 1166 1695 l 1,29,-1
 1166 1439 l 1,30,31
 1157 1102 1157 1102 905 926 c 1,32,33
 1154 762 1154 762 1154 473 c 0,0,1
EndSplineSet
EndChar
StartChar: uni1CB5
Encoding: 7349 7349 7349
Width: 1375
Flags: W
LayerCount: 2
Fore
SplineSet
839 685 m 1,0,-1
 621 685 l 1,1,2
 427 687 427 687 427 448 c 0,3,4
 427 212 427 212 628 212 c 0,5,6
 839 212 839 212 839 395 c 2,7,-1
 839 685 l 1,0,-1
427 1206 m 0,8,9
 427 948 427 948 621 948 c 2,10,-1
 839 948 l 1,11,-1
 839 1289 l 2,12,13
 839 1454 839 1454 628 1454 c 0,14,15
 427 1454 427 1454 427 1206 c 0,8,9
1154 461 m 1,16,-1
 1154 395 l 2,17,18
 1154 -29 1154 -29 621 -29 c 0,19,20
 100 -29 100 -29 100 448 c 0,21,22
 100 694 100 694 306 817 c 1,23,24
 100 936 100 936 100 1206 c 0,25,26
 100 1696 100 1696 628 1696 c 0,27,28
 1154 1696 1154 1696 1154 1289 c 2,29,-1
 1154 1195 l 1,30,-1
 1285 1195 l 1,31,-1
 1285 924 l 1,32,-1
 1154 924 l 1,33,-1
 1154 726 l 1,34,-1
 1285 726 l 1,35,-1
 1285 461 l 1,36,-1
 1154 461 l 1,16,-1
EndSplineSet
EndChar
StartChar: uni1CB6
Encoding: 7350 7350 7350
Width: 1972
Flags: W
LayerCount: 2
Fore
SplineSet
1549 1176 m 2,0,1
 1549 1455 1549 1455 1348 1455 c 1,2,3
 1152 1452 1152 1452 1153 1226 c 1,4,-1
 1153 848 l 2,5,6
 1153 614 1153 614 1348 613 c 1,7,8
 1549 613 1549 613 1549 934 c 2,9,-1
 1549 1176 l 2,0,1
1872 929 m 2,10,11
 1872 371 1872 371 1341 371 c 1,12,13
 1233 385 1233 385 1152 421 c 1,14,-1
 1152 396 l 2,15,16
 1152 -29 1152 -29 568 -29 c 1,17,-1
 568 214 l 1,18,19
 826 214 826 214 826 396 c 2,20,-1
 826 1226 l 1,21,22
 827 1455 827 1455 625 1455 c 0,23,24
 426 1455 426 1455 428 1176 c 1,25,-1
 428 939 l 2,26,27
 428 671 428 671 702 671 c 1,28,-1
 702 423 l 1,29,30
 101 423 101 423 100 939 c 1,31,-1
 100 1176 l 1,32,33
 101 1357 101 1357 221.5 1526 c 128,-1,34
 342 1695 342 1695 625 1696 c 1,35,36
 866 1695 866 1695 993 1519 c 1,37,38
 1120 1696 1120 1696 1348 1696 c 0,39,40
 1674 1695 1674 1695 1773 1526 c 128,-1,41
 1872 1357 1872 1357 1872 1176 c 2,42,-1
 1872 929 l 2,10,11
EndSplineSet
EndChar
